<svg width="32" height="32" viewBox="0 0 32 32" fill="none" xmlns="http://www.w3.org/2000/svg">
<path fill-rule="evenodd" clip-rule="evenodd" d="M16 32C7.1776 32 0 24.8224 0 16C0 7.1776 7.1776 0 16 0C24.8224 0 32 7.1776 32 16C32 24.8224 24.8224 32 16 32ZM17.6 8C17.6 7.11634 16.8837 6.4 16 6.4C15.1163 6.4 14.4 7.11634 14.4 8V8.27296C12.5354 8.93167 11.2 10.7094 11.2 12.8C11.2 14.4215 11.7757 15.6317 12.84 16.43C13.7044 17.0783 14.7836 17.3464 15.5062 17.5259L15.6119 17.5522C16.4922 17.7723 16.9477 17.9108 17.24 18.13C17.3757 18.2317 17.6 18.4215 17.6 19.2C17.6 20.0756 16.8984 20.7858 16.0262 20.7998C16.0125 20.7987 15.9871 20.7962 15.9513 20.7911C15.8603 20.7781 15.705 20.7484 15.506 20.6821C15.1135 20.5513 14.5359 20.2732 13.9314 19.6686C13.3065 19.0438 12.2935 19.0438 11.6686 19.6686C11.0438 20.2935 11.0438 21.3065 11.6686 21.9314C12.6258 22.8886 13.608 23.4079 14.4 23.6857V24C14.4 24.8837 15.1163 25.6 16 25.6C16.8837 25.6 17.6 24.8837 17.6 24V23.727C19.4646 23.0683 20.8 21.2906 20.8 19.2C20.8 17.5785 20.2243 16.3683 19.16 15.57C18.2956 14.9217 17.2164 14.6536 16.4938 14.4741L16.3881 14.4478C15.5078 14.2277 15.0523 14.0892 14.76 13.87C14.6243 13.7683 14.4 13.5785 14.4 12.8C14.4 11.9244 15.1016 11.2142 15.9738 11.2002C15.9875 11.2013 16.0129 11.2038 16.0487 11.2089C16.1397 11.2219 16.295 11.2516 16.494 11.3179C16.8865 11.4487 17.4641 11.7268 18.0686 12.3314C18.6935 12.9562 19.7065 12.9562 20.3314 12.3314C20.9562 11.7065 20.9562 10.6935 20.3314 10.0686C19.3742 9.11142 18.392 8.59209 17.6 8.31427V8Z" fill="#007F5F"/>
</svg>
