<svg width="32" height="32" viewBox="0 0 32 32" fill="none" xmlns="http://www.w3.org/2000/svg">
<path d="M11.1175 0.00210571C11.748 0.00210571 12.3528 0.254552 12.7989 0.703994L15.1624 3.39199L9.34092 9.98399C8.44454 11.0158 7.94871 12.3401 7.94504 13.712V28.8H3.97946C3.34842 28.8 2.74322 28.5471 2.29701 28.097C1.8508 27.647 1.60012 27.0365 1.60012 26.4V10.592C1.59776 10.0018 1.81254 9.43168 2.20288 8.99199L7.77055 2.59199L9.43609 0.703994C9.88222 0.254552 10.487 0.00210571 11.1175 0.00210571Z" fill="#007F5F"/>
<path fill-rule="evenodd" clip-rule="evenodd" d="M22.463 3.90195L29.7895 12.1105C30.1849 12.5503 30.4025 13.1204 30.4001 13.7107V29.5998C30.4001 30.2364 30.1462 30.8469 29.6942 31.297C29.2422 31.7471 28.6292 32 27.99 32H13.5298C12.9047 31.9792 12.3121 31.7172 11.8774 31.2693C11.4426 30.8215 11.1998 30.2228 11.2001 29.5998V13.7907C11.1977 13.2004 11.4153 12.6303 11.8107 12.1906L17.4501 5.79008L19.0568 3.90195C19.5087 3.45247 20.1213 3.20001 20.7599 3.20001C21.3986 3.20001 22.0111 3.45247 22.463 3.90195ZM19.421 13.1942C19.8173 13.4579 20.2833 13.5987 20.7599 13.5987C21.3991 13.5987 22.0121 13.3458 22.4641 12.8957C22.9161 12.4455 23.17 11.835 23.17 11.1985C23.17 10.7238 23.0286 10.2597 22.7638 9.86501C22.499 9.47031 22.1226 9.16267 21.6822 8.98101C21.2418 8.79934 20.7573 8.75181 20.2898 8.84442C19.8223 8.93703 19.3928 9.16563 19.0558 9.5013C18.7187 9.83697 18.4892 10.2646 18.3962 10.7302C18.3032 11.1958 18.3509 11.6784 18.5333 12.117C18.7158 12.5556 19.0247 12.9304 19.421 13.1942Z" fill="#007F5F"/>
</svg>
