<svg width="32" height="32" viewBox="0 0 32 32" fill="none" xmlns="http://www.w3.org/2000/svg">
<g clip-path="url(#clip0_54_8560)">
<path fill-rule="evenodd" clip-rule="evenodd" d="M30.1881 19.9685C31.4239 18.5703 32.0729 16.7504 32.0001 14.8868V14.5826C31.7366 11.6643 30.6762 8.87413 28.9343 6.51622C27.1924 4.15831 24.8359 2.32309 22.1217 1.21051C19.4074 0.0979371 16.4394 -0.249303 13.5411 0.206628C10.6428 0.662559 7.92541 1.90417 5.68501 3.79617C3.44461 5.68817 1.76715 8.15798 0.835402 10.9365C-0.0963419 13.715 -0.246623 16.6956 0.400935 19.5535C1.04849 22.4114 2.46905 25.037 4.50781 27.1442C6.54657 29.2514 9.12533 30.7593 11.9631 31.5037C14.0781 31.8851 16.2264 32.0514 18.3749 32H20.2184C20.8198 32 21.3936 31.6882 21.7959 31.2417C22.1982 30.7953 22.4144 30.2121 22.4001 29.6116C22.4001 28.9748 22.1468 28.364 21.6959 27.9137C21.245 27.4633 20.6378 27.2116 20.0001 27.2116C19.3624 27.2116 18.7286 26.9444 18.2777 26.4941C17.8268 26.0437 17.5735 25.433 17.5735 24.7961C17.5735 24.1592 17.8268 23.5485 18.2777 23.0981C18.7286 22.6478 19.3402 22.3948 19.9779 22.3948H25.3639C27.2245 22.2357 28.9522 21.3667 30.1881 19.9685ZM19.2001 5.59999C19.2001 6.92547 18.1256 7.99999 16.8001 7.99999C15.4746 7.99999 14.4001 6.92547 14.4001 5.59999C14.4001 4.27451 15.4746 3.19999 16.8001 3.19999C18.1256 3.19999 19.2001 4.27451 19.2001 5.59999ZM8.80013 11.2C10.1256 11.2 11.2001 10.1255 11.2001 8.79999C11.2001 7.47451 10.1256 6.39999 8.80013 6.39999C7.47464 6.39999 6.40013 7.47451 6.40013 8.79999C6.40013 10.1255 7.47464 11.2 8.80013 11.2ZM7.20013 19.2C8.52561 19.2 9.60013 18.1255 9.60013 16.8C9.60013 15.4745 8.52561 14.4 7.20013 14.4C5.87464 14.4 4.80013 15.4745 4.80013 16.8C4.80013 18.1255 5.87464 19.2 7.20013 19.2ZM23.2001 12.8C24.5256 12.8 25.6001 11.7255 25.6001 10.4C25.6001 9.07451 24.5256 7.99999 23.2001 7.99999C21.8746 7.99999 20.8001 9.07451 20.8001 10.4C20.8001 11.7255 21.8746 12.8 23.2001 12.8Z" fill="#007F5F"/>
</g>
<defs>
<clipPath id="clip0_54_8560">
<rect width="32" height="32" fill="white"/>
</clipPath>
</defs>
</svg>
