<svg width="32" height="32" viewBox="0 0 32 32" fill="none" xmlns="http://www.w3.org/2000/svg">
<path d="M5.19821 3.20211H27.387C28.0088 3.20211 28.3929 3.88057 28.0729 4.41379L24.0001 11.2L29.3604 17.9004C29.7794 18.4242 29.4066 19.2001 28.7358 19.2002L8.75341 19.2021L11.163 30.0533C11.2088 30.2586 11.2136 30.4709 11.1773 30.6781C11.1409 30.8852 11.0641 31.0832 10.9511 31.2606C10.8382 31.4381 10.6914 31.5915 10.5191 31.7121C10.3468 31.8328 10.1524 31.9183 9.94701 31.9637C9.53284 32.053 9.10015 31.9755 8.74281 31.7478C8.38547 31.5202 8.13229 31.1608 8.03821 30.7477L1.63821 1.94771C1.59262 1.74254 1.58788 1.53039 1.62427 1.32338C1.66067 1.11637 1.73748 0.918559 1.85032 0.741237C1.96316 0.563914 2.10982 0.410553 2.28193 0.289911C2.45405 0.169269 2.64823 0.0837079 2.85341 0.0381129C3.05859 -0.00748202 3.27074 -0.0122178 3.47774 0.0241759C3.68475 0.0605696 3.88256 0.13738 4.05989 0.250222C4.23721 0.363064 4.39057 0.509727 4.51121 0.681837C4.63185 0.853948 4.71742 1.04814 4.76301 1.25331L5.19821 3.20211Z" fill="#007F5F"/>
</svg>
