<svg width="20" height="20" viewBox="0 0 20 20" fill="none" xmlns="http://www.w3.org/2000/svg">
<path fill-rule="evenodd" clip-rule="evenodd" d="M10.2929 1.29289C10.4804 1.10536 10.7348 1 11 1H18C18.5523 1 19 1.44772 19 2V9C19 9.26522 18.8946 9.51957 18.7071 9.70711L9.70711 18.7071C9.31658 19.0976 8.68342 19.0976 8.29289 18.7071L1.29289 11.7071C0.902369 11.3166 0.902369 10.6834 1.29289 10.2929L10.2929 1.29289ZM15.5 6C16.3284 6 17 5.32843 17 4.5C17 3.67157 16.3284 3 15.5 3C14.6716 3 14 3.67157 14 4.5C14 5.32843 14.6716 6 15.5 6Z" fill="#007F5F"/>
</svg>
